<svg width="50" height="38" viewBox="0 0 50 38" fill="none" xmlns="http://www.w3.org/2000/svg">
<path d="M16.9922 36.6211L0.683594 20.4102C0.195312 20.0195 0 19.4336 0 18.6523C0 17.9688 0.195312 17.3828 0.683594 16.8945L4.29688 13.3789C4.6875 12.8906 5.27344 12.5977 5.95703 12.5977C6.64062 12.5977 7.22656 12.8906 7.8125 13.3789L18.75 24.3164L42.1875 0.878906C42.6758 0.390625 43.2617 0.0976562 43.9453 0.0976562C44.6289 0.0976562 45.2148 0.390625 45.7031 0.878906L49.3164 4.39453C49.707 4.88281 50 5.46875 50 6.15234C50 6.93359 49.707 7.51953 49.3164 7.91016L20.5078 36.6211C20.0195 37.207 19.4336 37.4023 18.75 37.4023C17.9688 37.4023 17.3828 37.207 16.9922 36.6211Z" fill="#1E70F5"/>
</svg>
